# xmcd
#
# Track frame offsets:
#       150
#       22512
#       42000
#       57980
#       88417
#       103870
#
# Disc length: 1547 seconds
#
# Revision: 0
# Processed by: cddbd v1.4PL0 Copyright (c) Steve Scherf et al.
# Submitted via: CD-DA_X-Tractor v0.23
#
DISCID=42060906
DTITLE=Mott the Hoople - London to Memphis
DYEAR=1997
DGENRE=Rock
TTITLE0=All The Way From Memphis
TTITLE1=Sweet Jave
TTITLE2=All The Young Dudes
TTITLE3=One Of The Boys
TTITLE4=The Golden Age Of Rock 'N' Roll
TTITLE5=Honaloochie Boogie
EXTD=
EXTT0=
EXTT1=
EXTT2=
EXTT3=
EXTT4=
EXTT5=
PLAYORDER=
